<?xml version="1.0" standalone="no"?>
<!DOCTYPE svg PUBLIC "-//W3C//DTD SVG 20010904//EN"
 "http://www.w3.org/TR/2001/REC-SVG-20010904/DTD/svg10.dtd">
<svg version="1.0" xmlns="http://www.w3.org/2000/svg"
 width="700.000000pt" height="700.000000pt" viewBox="0 0 700.000000 700.000000"
 preserveAspectRatio="xMidYMid meet">
<metadata>
Created by potrace 1.11, written by Peter Selinger 2001-2013
</metadata>
<g transform="translate(0.000000,700.000000) scale(0.100000,-0.100000)"
fill="#000000" stroke="none">
<path d="M3496 6473 c-1 -2 -27 -5 -57 -7 -30 -2 -54 -5 -54 -6 0 -1 -11 -4
-25 -6 -13 -2 -35 -11 -47 -19 -13 -9 -23 -13 -23 -9 0 6 -63 -30 -88 -51 -33
-26 -113 -105 -107 -105 3 0 -5 -15 -18 -32 -20 -27 -49 -87 -53 -108 0 -3 -4
-17 -8 -31 -4 -14 -8 -33 -10 -42 -1 -9 -5 -19 -9 -23 -3 -4 -2 -15 4 -25 5
-11 6 -19 2 -19 -10 0 -9 -52 1 -68 4 -7 2 -12 -6 -12 -9 0 -9 -3 -2 -8 6 -4
13 -23 17 -42 8 -51 11 -64 18 -70 9 -7 42 -83 41 -92 -1 -5 6 -8 15 -8 9 0
14 -3 10 -6 -21 -21 168 -175 194 -158 7 4 9 3 6 -3 -6 -10 27 -27 47 -24 29
5 32 -22 32 -315 l-1 -296 -58 -29 c-33 -16 -65 -29 -73 -29 -8 0 -14 -4 -14
-9 0 -8 -37 -23 -63 -25 -4 -1 -11 -7 -16 -14 -5 -8 -10 -13 -12 -11 -8 4 -79
-25 -79 -33 0 -4 -6 -8 -13 -8 -7 0 -38 -12 -68 -26 -30 -15 -60 -27 -66 -27
-7 0 -13 -4 -13 -9 0 -4 -3 -7 -7 -6 -5 1 -24 -6 -43 -17 -19 -10 -41 -20 -49
-21 -8 -2 -18 -9 -22 -16 -5 -7 -9 -9 -9 -4 0 5 -6 3 -13 -3 -8 -6 -17 -8 -20
-4 -4 3 -7 1 -7 -5 0 -7 -6 -12 -12 -12 -7 0 -26 -7 -42 -15 -15 -8 -33 -12
-39 -8 -6 3 -7 1 -3 -5 6 -11 -6 -16 -26 -13 -5 0 -8 -3 -8 -9 0 -6 -3 -9 -7
-8 -5 1 -21 -5 -38 -12 -16 -7 -33 -13 -37 -12 -5 1 -8 -2 -8 -8 0 -5 -7 -10
-15 -10 -8 0 -15 -5 -15 -11 0 -5 -4 -8 -8 -5 -5 3 -42 -11 -83 -31 -41 -21
-77 -38 -81 -39 -5 -1 -11 -3 -15 -4 -5 -1 -11 -2 -15 -1 -5 0 -8 -2 -8 -7 0
-7 -37 -25 -77 -37 -13 -3 -23 -11 -23 -16 0 -6 -4 -8 -9 -4 -5 3 -12 1 -16
-5 -4 -6 -11 -8 -16 -5 -5 4 -9 1 -9 -4 0 -6 -3 -10 -7 -9 -5 0 -26 -7 -48
-17 -22 -10 -43 -18 -47 -17 -5 1 -8 -2 -8 -7 0 -5 -11 -12 -25 -15 -14 -4
-25 -11 -25 -16 0 -5 -9 -7 -20 -5 -11 2 -20 1 -20 -3 0 -4 -15 -13 -32 -21
-18 -8 -66 -29 -106 -48 -41 -18 -79 -35 -85 -36 -6 -1 -18 -8 -25 -15 -8 -7
-17 -10 -22 -7 -5 3 -10 2 -12 -2 -1 -5 -25 -19 -52 -33 -27 -14 -54 -34 -60
-45 -6 -11 -13 -22 -16 -25 -3 -3 -6 -502 -5 -1110 1 -1063 -1 -1140 -27
-1140 -4 0 -19 -10 -34 -22 -14 -13 -28 -22 -31 -20 -2 2 -15 -8 -28 -22 -13
-14 -29 -26 -35 -26 -5 0 -10 -5 -10 -12 0 -6 -3 -8 -7 -5 -3 4 -18 -6 -33
-21 -15 -15 -33 -28 -41 -30 -8 -2 -22 -12 -31 -24 -10 -11 -18 -17 -18 -12 0
4 -14 -5 -32 -22 -17 -16 -28 -22 -24 -14 4 8 -1 5 -11 -8 -10 -13 -28 -29
-39 -35 -11 -7 -36 -22 -55 -34 -19 -13 -36 -18 -37 -13 -2 6 -8 8 -13 4 -5
-3 -9 -1 -9 3 0 5 -17 17 -37 28 -21 11 -40 22 -43 25 -9 11 -112 40 -120 35
-5 -3 -11 -1 -15 4 -3 5 -32 9 -63 9 -32 -1 -63 2 -69 5 -6 4 -13 3 -15 -2 -1
-5 -19 -12 -38 -15 -54 -10 -59 -12 -66 -19 -4 -4 -16 -7 -26 -7 -10 0 -18 -5
-18 -11 0 -5 -4 -7 -10 -4 -5 3 -10 1 -10 -5 0 -6 -4 -9 -9 -6 -4 3 -19 -4
-32 -15 -13 -11 -39 -33 -57 -47 -43 -34 -93 -102 -85 -115 3 -6 1 -7 -4 -4
-10 6 -40 -50 -35 -65 1 -5 -2 -8 -7 -8 -9 0 -25 -61 -24 -92 0 -10 -3 -18 -6
-18 -4 0 -6 -24 -5 -52 1 -29 3 -53 4 -53 0 0 2 -18 4 -40 3 -49 27 -135 38
-135 4 0 8 -9 8 -20 0 -11 5 -20 10 -20 6 0 10 -6 10 -13 0 -20 120 -141 160
-162 19 -10 38 -23 42 -29 4 -6 8 -7 8 -2 0 4 11 1 25 -8 14 -9 25 -14 25 -11
0 2 12 0 26 -6 33 -12 98 -21 144 -19 60 2 95 6 105 12 6 3 18 4 28 3 9 -2 17
1 17 6 0 5 5 9 12 9 19 0 115 51 134 71 9 10 23 19 31 19 7 0 13 6 13 13 0 7
9 18 20 25 11 7 20 16 20 22 0 5 11 21 25 36 13 14 30 42 37 60 7 19 15 34 20
34 4 0 5 7 2 15 -4 8 -2 15 4 15 6 0 9 8 7 18 -1 9 0 22 4 27 14 25 19 194 5
216 -4 7 -9 22 -10 34 -4 35 -9 50 -19 58 -6 4 -2 13 10 22 11 8 27 20 35 27
8 7 15 11 15 8 1 -6 29 17 53 43 9 9 21 17 27 17 6 0 20 8 31 18 10 9 32 26
49 36 33 21 47 32 76 58 10 10 24 18 29 18 6 0 10 5 10 10 0 6 4 10 10 10 9 0
71 43 123 86 16 13 22 13 55 -5 20 -11 52 -25 70 -33 17 -7 32 -16 32 -20 0
-4 6 -5 13 -2 8 3 20 -2 27 -11 7 -8 17 -15 23 -15 19 0 107 -43 107 -52 0 -5
4 -7 8 -4 5 3 38 -10 75 -28 36 -19 69 -31 72 -28 3 3 5 0 5 -6 0 -7 3 -11 8
-10 4 1 17 -3 28 -10 12 -6 24 -9 27 -5 4 3 9 -2 13 -11 3 -9 10 -14 15 -11 8
6 49 -13 60 -27 3 -5 17 -9 31 -10 15 -1 24 -6 22 -10 -5 -7 10 -12 29 -9 4 0
7 -4 7 -10 0 -6 7 -9 15 -6 8 4 17 2 21 -4 5 -8 34 -24 64 -34 35 -12 69 -33
63 -39 -4 -4 1 -4 10 0 11 4 25 0 36 -10 10 -9 21 -13 24 -9 4 3 7 1 7 -5 0
-7 3 -11 8 -10 4 1 39 -13 77 -31 75 -36 105 -48 118 -49 4 -1 19 -10 34 -21
14 -12 29 -18 33 -16 5 3 11 1 15 -5 4 -6 11 -8 16 -5 5 4 12 -1 15 -9 3 -9
12 -16 20 -16 8 0 22 -4 32 -9 26 -14 116 -56 122 -56 3 0 15 -6 28 -13 12 -7
22 -10 22 -7 0 4 7 -1 16 -9 8 -9 20 -14 25 -11 5 4 9 2 9 -3 0 -5 10 -12 23
-16 12 -3 22 -5 22 -5 0 0 25 -12 55 -27 30 -16 58 -27 63 -26 4 1 7 -3 7 -8
0 -6 9 -10 19 -10 11 0 26 -6 33 -13 7 -8 19 -12 26 -9 6 2 12 -1 12 -7 0 -21
81 -11 138 16 31 15 60 26 65 25 4 -1 7 3 7 8 0 5 3 10 8 9 14 -2 52 13 52 22
0 4 9 6 20 4 11 -2 18 0 15 4 -5 8 41 26 58 23 4 -1 7 2 7 7 0 8 37 24 53 22
4 -1 7 4 7 9 0 5 3 9 8 8 4 -1 39 13 77 32 39 19 72 35 75 35 3 0 30 12 60 27
30 14 78 36 105 48 28 12 93 43 145 68 52 25 103 45 113 44 9 0 15 3 12 9 -6
8 8 13 28 10 4 0 7 4 7 9 0 5 3 9 8 8 4 0 25 7 47 17 22 10 43 18 48 17 4 -1
7 3 7 8 0 6 5 10 12 10 6 0 34 11 62 24 28 13 87 41 131 62 44 20 82 38 85 39
3 0 28 12 55 25 55 27 51 25 83 35 12 4 22 12 22 17 0 5 4 7 9 3 5 -3 13 0 16
6 4 5 14 8 22 5 8 -3 12 -2 9 3 -5 8 40 26 57 23 4 -1 7 2 7 7 0 9 58 35 73
32 4 0 7 4 7 9 0 5 3 9 8 8 4 -1 18 4 32 12 35 19 69 21 88 5 59 -48 111 -83
116 -78 3 4 6 -2 6 -12 0 -10 3 -16 6 -12 3 3 11 2 18 -3 59 -48 75 -60 84
-60 5 0 12 -7 16 -15 3 -8 12 -15 21 -15 8 0 15 -5 15 -12 0 -6 3 -9 6 -5 4 3
15 -4 25 -16 10 -12 18 -19 19 -14 0 4 8 -1 18 -10 31 -29 62 -53 69 -53 4 0
17 -10 29 -21 22 -20 22 -23 8 -51 -8 -16 -12 -33 -9 -38 3 -6 2 -10 -4 -10
-5 0 -8 -8 -6 -17 1 -10 -2 -26 -7 -36 -6 -12 -6 -23 1 -31 6 -7 7 -16 3 -20
-8 -9 -10 -96 -1 -96 3 0 6 -10 6 -22 2 -30 6 -46 26 -92 9 -21 17 -42 17 -47
0 -5 5 -9 10 -9 6 0 10 -7 10 -15 0 -8 5 -15 10 -15 6 0 10 -6 10 -12 0 -19
111 -122 148 -139 18 -8 32 -17 32 -21 0 -5 9 -8 19 -8 11 0 22 -4 25 -9 5 -8
26 -13 101 -26 53 -9 135 -11 135 -3 0 4 13 6 30 4 16 -2 32 -1 36 3 3 3 10 7
15 7 5 1 11 3 14 4 3 1 8 3 13 4 30 7 52 19 52 28 0 5 6 8 14 5 8 -3 23 3 35
14 12 11 21 17 21 13 0 -3 16 10 36 30 20 20 41 40 48 44 6 4 17 16 24 27 7
11 22 36 35 55 12 19 22 37 22 40 1 3 6 15 13 26 6 12 8 24 5 28 -3 3 -2 6 4
6 5 0 10 6 11 13 0 6 4 35 9 62 29 162 -22 318 -140 436 -32 32 -67 61 -77 64
-11 4 -20 11 -20 16 0 5 -9 9 -19 9 -11 0 -21 4 -23 10 -5 14 -165 53 -199 48
-16 -3 -29 -1 -29 4 0 5 -6 6 -12 2 -14 -9 -22 -10 -83 -18 -22 -2 -53 -11
-70 -20 -16 -9 -36 -16 -42 -16 -7 0 -22 -9 -33 -20 -11 -11 -23 -21 -27 -21
-5 -1 -19 -9 -32 -18 -18 -12 -26 -12 -29 -3 -2 7 -8 10 -13 6 -5 -3 -9 2 -9
11 0 9 -4 13 -10 10 -6 -3 -10 -2 -10 4 0 5 -8 12 -17 15 -10 3 -34 19 -53 36
-19 17 -43 33 -52 36 -10 3 -18 10 -18 16 0 6 -2 9 -5 6 -6 -5 -32 14 -76 55
-10 9 -22 17 -25 16 -6 -1 -49 29 -69 49 -8 6 -18 12 -23 12 -6 0 -13 7 -16
16 -4 9 -9 14 -13 11 -3 -4 -13 1 -22 11 -9 9 -28 23 -43 31 l-28 14 0 1107
c0 609 -3 1110 -7 1114 -5 4 -8 11 -8 15 0 21 -119 91 -155 91 -6 0 -8 5 -4
12 4 7 3 8 -4 4 -11 -7 -51 11 -64 29 -4 6 -8 6 -8 1 0 -4 -11 -1 -23 7 -13 8
-32 17 -43 19 -10 2 -25 9 -32 16 -8 7 -18 10 -23 7 -5 -4 -9 -3 -9 2 0 8 -36
26 -78 38 -12 4 -19 11 -16 17 4 6 2 8 -4 4 -6 -3 -48 12 -93 34 -45 22 -88
40 -96 40 -7 0 -13 5 -13 10 0 6 -9 10 -20 10 -11 0 -20 5 -20 11 0 5 -4 8 -9
5 -4 -3 -17 1 -27 9 -10 8 -27 15 -36 15 -10 0 -18 5 -18 10 0 6 -4 10 -10 10
-5 0 -39 14 -75 30 -36 17 -70 30 -75 30 -6 0 -10 5 -10 10 0 6 -9 10 -19 10
-11 0 -23 5 -26 10 -3 6 -17 10 -31 10 -17 0 -23 4 -18 12 5 8 2 9 -9 5 -10
-3 -17 -3 -17 2 0 4 -30 21 -67 36 -38 16 -70 31 -73 35 -3 3 -24 12 -47 20
-24 7 -43 17 -43 22 0 4 -9 8 -20 8 -11 0 -20 5 -20 10 0 6 -4 9 -8 8 -11 -4
-115 44 -124 57 -4 5 -8 6 -8 2 0 -5 -12 -1 -27 7 -36 19 -169 80 -210 96 -18
7 -30 16 -27 21 3 5 -1 6 -9 3 -8 -3 -18 -1 -22 5 -3 6 -14 11 -24 11 -43 0
-46 18 -46 321 0 159 3 290 8 290 54 9 177 66 177 82 0 6 3 8 6 4 3 -3 18 5
32 19 15 13 30 24 34 24 5 0 8 5 8 10 0 6 11 21 25 34 14 13 25 28 25 35 0 6
4 11 8 11 7 0 45 74 47 90 0 3 4 11 8 18 5 6 6 16 3 21 -4 5 -2 11 4 13 5 1
11 21 13 43 1 22 6 46 10 53 5 7 3 12 -3 12 -8 0 -8 6 0 20 8 15 8 20 -1 20
-9 0 -9 3 0 14 7 8 8 17 4 19 -5 3 -10 20 -11 37 -1 17 -9 47 -17 66 -8 19
-11 34 -7 34 4 0 2 4 -3 8 -10 7 -31 48 -33 65 -1 4 -12 18 -24 31 -46 47 -66
74 -60 82 4 4 2 4 -4 1 -6 -3 -22 5 -36 18 -21 20 -103 68 -118 70 -3 0 -10 4
-17 8 -6 4 -23 8 -37 9 -14 1 -26 6 -26 10 0 4 -5 8 -11 8 -5 0 -7 -6 -3 -12
6 -10 4 -10 -7 -2 -13 11 -86 24 -93 17z m1575 -2503 c10 0 21 -5 25 -12 4 -7
3 -8 -4 -4 -7 4 -12 1 -12 -8 0 -23 -23 -10 -38 21 -9 20 -9 24 0 15 7 -7 20
-12 29 -12z m-3138 -15 c-3 -8 1 -15 8 -15 7 0 10 -2 7 -5 -8 -8 -58 13 -58
24 0 10 30 20 42 14 4 -2 5 -10 1 -18z m-170 -184 c4 -1 -1 -9 -10 -19 -16
-16 -19 -16 -25 -2 -11 24 -9 28 10 25 9 -2 20 -4 25 -4z m1598 -2725 c5 3 9
0 9 -6 0 -15 -23 -7 -26 8 -1 7 0 8 3 2 2 -5 9 -8 14 -4z m2963 -294 c3 -5 -1
-9 -9 -9 -8 0 -12 4 -9 9 3 4 7 8 9 8 2 0 6 -4 9 -8z"/>
</g>
</svg>
