<?xml version="1.0" standalone="no"?>
<!DOCTYPE svg PUBLIC "-//W3C//DTD SVG 20010904//EN"
 "http://www.w3.org/TR/2001/REC-SVG-20010904/DTD/svg10.dtd">
<svg version="1.0" xmlns="http://www.w3.org/2000/svg"
 width="700.000000pt" height="700.000000pt" viewBox="0 0 700.000000 700.000000"
 preserveAspectRatio="xMidYMid meet">
<metadata>
Created by potrace 1.11, written by Peter Selinger 2001-2013
</metadata>
<g transform="translate(0.000000,700.000000) scale(0.100000,-0.100000)"
fill="#000000" stroke="none">
<path d="M3350 6448 c-208 -65 -350 -260 -350 -479 0 -208 133 -391 343 -473
l37 -15 -2 -297 -3 -297 -131 -61 c-72 -34 -186 -87 -255 -118 -108 -50 -334
-153 -774 -355 -66 -31 -149 -69 -185 -86 -86 -39 -199 -91 -285 -130 -168
-76 -209 -101 -227 -137 -17 -33 -18 -108 -18 -1140 l-1 -1105 -91 -65 c-50
-36 -158 -113 -240 -173 l-148 -107 -53 35 c-227 150 -536 89 -686 -137 -161
-239 -82 -574 168 -713 277 -155 628 -18 721 284 27 86 27 221 1 297 l-20 55
49 37 c119 91 430 312 440 312 14 0 113 -43 269 -116 62 -30 114 -54 116 -54
2 0 45 -20 97 -44 51 -24 148 -69 216 -100 197 -90 360 -166 460 -212 52 -24
95 -44 97 -44 2 0 60 -27 130 -60 70 -33 128 -60 130 -60 2 0 47 -21 102 -46
171 -80 205 -94 233 -94 29 0 63 14 228 91 57 27 105 49 107 49 2 0 60 27 130
60 70 33 128 60 130 60 2 0 56 25 120 55 65 30 118 55 120 55 2 0 45 20 97 44
51 24 148 69 216 100 189 87 348 160 447 206 50 23 108 50 130 60 22 9 62 28
89 40 58 28 25 45 322 -169 192 -139 225 -167 221 -185 -32 -136 -38 -176 -32
-226 31 -269 238 -460 500 -460 140 0 254 47 353 146 243 243 174 652 -134
800 -146 70 -295 70 -437 0 -40 -19 -81 -42 -93 -51 -19 -14 -32 -7 -245 146
-123 89 -239 173 -256 186 l-33 24 0 1100 c0 1030 -1 1103 -17 1131 -13 22
-43 42 -111 74 -52 24 -95 44 -97 44 -1 0 -49 22 -106 49 -57 26 -160 74 -229
106 -69 31 -183 84 -255 117 -71 33 -159 74 -195 90 -141 65 -573 264 -710
327 l-145 67 -3 296 -2 296 59 20 c175 59 304 214 333 397 39 250 -115 487
-361 559 -76 22 -200 20 -281 -6z m265 -218 c23 -10 62 -39 88 -64 37 -38 51
-61 67 -118 19 -62 20 -76 9 -122 -15 -66 -32 -98 -76 -147 -59 -65 -104 -84
-203 -84 -69 0 -93 4 -125 22 -84 47 -126 101 -151 193 -16 63 -16 67 5 137
51 170 224 252 386 183z m5 -1588 c94 -44 317 -147 395 -182 68 -31 154 -70
320 -147 139 -64 213 -98 290 -133 336 -153 461 -214 459 -227 -1 -8 -241
-124 -464 -224 -63 -29 -180 -83 -259 -121 -79 -37 -145 -68 -146 -68 -2 0
-55 -25 -120 -55 -64 -30 -118 -55 -120 -55 -2 0 -60 -27 -130 -60 -70 -33
-128 -60 -130 -60 -2 0 -51 -22 -109 -50 -58 -28 -110 -50 -115 -50 -5 0 -38
13 -73 29 -60 27 -101 46 -278 128 -65 31 -165 77 -415 193 -33 15 -118 55
-190 88 -71 33 -166 76 -210 97 -44 20 -105 49 -135 63 -188 86 -300 141 -300
147 0 6 154 82 320 158 30 14 124 57 208 96 85 39 155 71 157 71 2 0 48 21
102 46 54 26 161 75 238 111 77 35 158 73 180 83 22 10 65 29 95 43 30 14 100
46 155 72 156 74 135 73 275 7z m-1808 -901 c100 -46 204 -94 278 -128 30 -14
91 -43 135 -63 44 -21 105 -49 135 -63 30 -14 93 -43 140 -65 47 -22 117 -54
155 -72 39 -17 88 -40 111 -51 22 -10 46 -19 52 -19 7 0 12 -4 12 -10 0 -5 4
-10 10 -10 5 0 38 -13 72 -29 134 -61 225 -104 283 -131 33 -15 86 -40 117
-54 l58 -26 2 -991 c2 -545 1 -992 0 -994 -2 -2 -20 5 -40 15 -21 10 -59 28
-87 40 -27 12 -81 37 -120 55 -66 31 -102 48 -270 125 -38 17 -88 40 -111 51
-22 10 -46 19 -52 19 -7 0 -12 5 -12 10 0 6 -5 10 -12 10 -6 0 -30 9 -52 19
-23 11 -72 34 -111 51 -38 18 -101 47 -140 65 -160 74 -202 94 -250 115 -60
27 -147 67 -273 126 -51 24 -97 44 -103 44 -5 0 -9 369 -9 963 0 529 -3 979
-6 1000 -4 20 -4 37 -1 37 4 0 44 -17 89 -39z m3428 -966 c0 -760 -3 -995 -12
-995 -6 0 -30 -9 -52 -19 -120 -56 -154 -71 -164 -71 -7 0 -12 -4 -12 -10 0
-5 -6 -10 -12 -10 -7 0 -35 -11 -63 -25 -27 -13 -56 -25 -62 -25 -7 0 -13 -5
-13 -10 0 -6 -3 -9 -7 -8 -5 2 -28 -7 -53 -19 -124 -58 -181 -83 -190 -83 -6
0 -10 -4 -10 -10 0 -5 -6 -10 -12 -10 -7 0 -35 -12 -63 -25 -27 -14 -56 -25
-62 -25 -7 0 -13 -4 -13 -9 0 -4 -20 -14 -45 -21 -25 -7 -45 -17 -45 -21 0 -5
-5 -9 -12 -9 -6 0 -30 -9 -52 -19 -120 -56 -154 -71 -164 -71 -7 0 -12 -4 -12
-10 0 -5 -6 -10 -12 -10 -7 0 -35 -11 -63 -25 -27 -13 -56 -25 -62 -25 -7 0
-13 -5 -13 -10 0 -6 -3 -9 -7 -8 -5 2 -28 -7 -53 -19 -25 -11 -72 -33 -105
-48 -33 -14 -90 -42 -127 -60 l-68 -33 0 991 0 992 53 24 c28 12 88 40 132 61
44 21 90 41 103 45 12 3 22 10 22 14 0 5 20 14 45 21 25 7 45 17 45 21 0 5 6
9 13 9 6 0 35 11 62 25 28 13 56 25 63 25 6 0 12 4 12 9 0 4 20 14 45 21 25 7
45 17 45 21 0 5 5 9 12 9 6 0 39 13 72 29 34 16 97 46 141 66 44 21 98 46 121
56 22 10 46 19 52 19 7 0 12 5 12 10 0 6 6 10 13 10 6 0 35 11 62 25 28 13 56
25 63 25 6 0 12 5 12 10 0 6 5 10 11 10 7 0 46 16 88 36 42 20 99 46 126 59
91 43 165 75 175 75 6 0 10 5 10 10 0 6 7 10 15 10 13 0 15 -117 15 -995z
m-4436 -1495 c75 -35 104 -63 140 -131 36 -70 37 -168 2 -237 -30 -60 -99
-128 -146 -144 -60 -22 -178 -16 -233 11 -85 41 -156 154 -157 250 -1 97 86
221 182 259 77 30 137 28 212 -8z m5566 22 c0 -4 20 -13 44 -20 41 -11 89 -49
135 -107 17 -22 44 -110 44 -145 0 -96 -69 -205 -158 -249 -77 -39 -227 -29
-274 18 -10 10 -26 24 -37 32 -62 46 -104 186 -78 259 7 19 13 42 14 51 0 9 7
19 15 23 8 3 15 11 15 18 0 19 75 84 112 98 18 6 40 16 48 20 19 11 120 13
120 2z"/>
</g>
</svg>
