<svg height='100px' width='100px'  fill="#000000" xmlns="http://www.w3.org/2000/svg" data-name="Layer 1" viewBox="0 0 512 512" x="0px" y="0px"><title>3d Cube</title><path d="M483.374,407.1a36.424,36.424,0,0,0-27.3-6.487,36.983,36.983,0,0,0-18.219,8.359L400,381.726v-159.1a7.846,7.846,0,0,0-4.485-7.268L263,154.3V111.16a36.653,36.653,0,1,0-16-.424v43.822l-132.238,60.8A8.1,8.1,0,0,0,110,222.623v160.6L74.5,408.975A36.55,36.55,0,0,0,29.23,407.1a36.666,36.666,0,0,0,42.982,59.414h0A36.722,36.722,0,0,0,84.18,421.793l35.8-25.885,131.953,60.714a8,8,0,0,0,6.688,0l133.222-61.3,36.607,26.469a36.723,36.723,0,0,0,11.965,44.724h0A36.659,36.659,0,0,0,483.374,407.1Zm-228.1-129.809L137.3,222.647l117.979-54.285,117.979,54.285ZM235.3,75.188a20.659,20.659,0,1,1,20.659,20.659A20.682,20.682,0,0,1,235.3,75.188ZM62.84,453.551h0a20.658,20.658,0,1,1-12.148-37.4,20.965,20.965,0,0,1,3.322.267,20.659,20.659,0,0,1,8.826,37.138ZM126,235.145l121,56.076V436.867L126,381.162ZM263,436.867V291.221l121-56.076V381.162Zm215.635,12.047a20.681,20.681,0,0,1-28.845,4.637h0a20.659,20.659,0,1,1,28.845-4.637Z"></path></svg>